<svg id="visual" viewBox="0 0 900 600" width="900" height="600" xmlns="http://www.w3.org/2000/svg" xmlns:xlink="http://www.w3.org/1999/xlink" version="1.1"><rect x="0" y="0" width="900" height="600" fill="#140021"></rect><path d="M0 375L129 375L129 304L257 304L257 254L386 254L386 364L514 364L514 250L643 250L643 342L771 342L771 320L900 320L900 343L900 601L900 601L771 601L771 601L643 601L643 601L514 601L514 601L386 601L386 601L257 601L257 601L129 601L129 601L0 601Z" fill="#560090"></path><path d="M0 387L129 387L129 418L257 418L257 346L386 346L386 383L514 383L514 370L643 370L643 460L771 460L771 370L900 370L900 362L900 601L900 601L771 601L771 601L643 601L643 601L514 601L514 601L386 601L386 601L257 601L257 601L129 601L129 601L0 601Z" fill="#7700c6"></path><path d="M0 446L129 446L129 480L257 480L257 505L386 505L386 536L514 536L514 509L643 509L643 502L771 502L771 516L900 516L900 508L900 601L900 601L771 601L771 601L643 601L643 601L514 601L514 601L386 601L386 601L257 601L257 601L129 601L129 601L0 601Z" fill="#9900ff"></path></svg>